<?xml version="1.0" encoding="utf-8" standalone="yes"?>
<!DOCTYPE svg PUBLIC "-//W3C//DTD SVG 1.1//EN" "http://www.w3.org/Graphics/SVG/1.1/DTD/svg11.dtd">
<svg width="546" height="445" viewBox="0 0 546 445" style="fill:none;stroke:none;fill-rule:evenodd;clip-rule:evenodd;stroke-linecap:round;stroke-linejoin:round;stroke-miterlimit:1.5;" version="1.1" xmlns="http://www.w3.org/2000/svg" xmlns:xlink="http://www.w3.org/1999/xlink"><style id="fontImports">@import url("https://fonts.googleapis.com/css2?family=Roboto:wght@400;700&amp;display=block");</style><rect id="" x="0" y="0" width="546" height="445" style="fill: #ffffff;"></rect><g id="items" style="isolation: isolate"><g id="blend" style="mix-blend-mode:normal"><g id="g-root-5.cu_sy_m98d9c9gxzpn-fill" data-item-order="999968324" data-item-id="5.cu_sy_m98d9c9gxzpn" data-item-class="Part Indexed Stroke ColorStrokeGray" data-item-index="5" data-renderer-id="0" transform="translate(182, 226)"></g><g id="g-root-5.cu_sy_m98d9c9gxzpn-fill" data-item-order="999968324" data-item-id="5.cu_sy_m98d9c9gxzpn" data-item-class="Part Indexed Stroke ColorStrokeGray" data-item-index="5" data-renderer-id="0" transform="translate(182, 226)"></g><g id="g-root-4.cu_sy_m98d9c9gxzpm-fill" data-item-order="999968325" data-item-id="4.cu_sy_m98d9c9gxzpm" data-item-class="Part Indexed Fill Stroke ColorFillGray ColorStrokeGray" data-item-index="4" data-renderer-id="0" transform="translate(254, 237)"></g><g id="g-root-4.cu_sy_m98d9c9gxzpm-fill" data-item-order="999968325" data-item-id="4.cu_sy_m98d9c9gxzpm" data-item-class="Part Indexed Fill Stroke ColorFillGray ColorStrokeGray" data-item-index="4" data-renderer-id="0" transform="translate(254, 237)"></g><g id="g-root-3.cu_sy_v4vdi89gxywx-fill" data-item-order="999968327" data-item-id="3.cu_sy_v4vdi89gxywx" data-item-class="Part Indexed Fill Stroke ColorFillGray ColorStrokeGray" data-item-index="3" data-renderer-id="0" transform="translate(218, 258.325927734375)"></g><g id="g-root-3.cu_sy_v4vdi89gxywx-fill" data-item-order="999968327" data-item-id="3.cu_sy_v4vdi89gxywx" data-item-class="Part Indexed Fill Stroke ColorFillGray ColorStrokeGray" data-item-index="3" data-renderer-id="0" transform="translate(218, 258.325927734375)"></g><g id="g-root-2.right-bucket_sy_v4vdi89gxyww-fill" data-item-order="999968329" data-item-id="2.right-bucket_sy_v4vdi89gxyww" data-item-class="Part Indexed Fill Stroke" data-item-index="2" data-renderer-id="0" transform="translate(314, 207)"></g><g id="g-root-2.right-bucket_sy_v4vdi89gxyww-fill" data-item-order="999968329" data-item-id="2.right-bucket_sy_v4vdi89gxyww" data-item-class="Part Indexed Fill Stroke" data-item-index="2" data-renderer-id="0" transform="translate(314, 207)"></g><g id="g-root-1.left-bucket_sy_qp1vds9gxyxb-fill" data-item-order="999968331" data-item-id="1.left-bucket_sy_qp1vds9gxyxb" data-item-class="Part Indexed Indexed_1 Fill Stroke" data-item-index="1" data-renderer-id="0" transform="translate(146, 207)"></g><g id="g-root-1.left-bucket_sy_qp1vds9gxyxb-fill" data-item-order="999968331" data-item-id="1.left-bucket_sy_qp1vds9gxyxb" data-item-class="Part Indexed Indexed_1 Fill Stroke" data-item-index="1" data-renderer-id="0" transform="translate(146, 207)"></g><g id="g-root-curv_qvx3c09gzd36-fill" data-item-order="1000000000" data-item-id="curv_qvx3c09gzd36" data-item-class="Icon Stroke Indexed ColorStrokeBlack" data-item-index="2" data-renderer-id="0" transform="translate(158, 75)"></g><g id="g-root-bus_htev4w9h0tmu-fill" data-item-order="1000000000" data-item-id="bus_htev4w9h0tmu" data-item-class="Icon Stroke Indexed ColorStrokeBlack" data-item-index="5" data-renderer-id="0" transform="translate(326, 75)"></g><g id="g-root-bus_htev4w9h0tmu-fill" data-item-order="1000000000" data-item-id="bus_htev4w9h0tmu" data-item-class="Icon Stroke Indexed ColorStrokeBlack" data-item-index="5" data-renderer-id="0" transform="translate(326, 75)"></g><g id="g-root-tx_moreflex_13zvwo09gy0i2-fill" data-item-order="1000000000" data-item-id="tx_moreflex_13zvwo09gy0i2" data-item-class="Label Stroke Indexed ColorStrokeBlack" data-item-index="5" data-renderer-id="0" transform="translate(386, 87)"><g id="tx_moreflex_13zvwo09gy0i2-fill" stroke="none" fill="#484848"><g><text style="font: 20px Roboto, sans-serif; white-space: pre;" font-weight="20px" font-size="Roboto," font-family="sans-serif"><tspan x="12" y="33.5" dominant-baseline="ideographic">More flexible</tspan></text></g></g></g><g id="g-root-tx_moreflex_13zvwo09gy0i2-fill" data-item-order="1000000000" data-item-id="tx_moreflex_13zvwo09gy0i2" data-item-class="Label Stroke Indexed ColorStrokeBlack" data-item-index="5" data-renderer-id="0" transform="translate(386, 87)"><g id="tx_moreflex_13zvwo09gy0i2-fill" stroke="none" fill="#484848"><g><text style="font: 20px Roboto, sans-serif; white-space: pre;" font-weight="20px" font-size="Roboto," font-family="sans-serif"><tspan x="12" y="33.5" dominant-baseline="ideographic">More flexible</tspan></text></g></g></g><g id="g-root-tx_requires_1lqjg2o9gy1am-fill" data-item-order="1000000000" data-item-id="tx_requires_1lqjg2o9gy1am" data-item-class="Label Stroke Indexed ColorStrokeBlack" data-item-index="3" data-renderer-id="0" transform="translate(2, 147)"><g id="tx_requires_1lqjg2o9gy1am-fill" stroke="none" fill="#484848"><g><text style="font: 20px Roboto, sans-serif; white-space: pre;" font-weight="20px" font-size="Roboto," font-family="sans-serif"><tspan x="74.35" y="33.5" dominant-baseline="ideographic">Requires </tspan><tspan x="13.56" y="57.5" dominant-baseline="ideographic">repeated config</tspan></text></g></g></g><g id="g-root-tx_requires_1lqjg2o9gy1am-fill" data-item-order="1000000000" data-item-id="tx_requires_1lqjg2o9gy1am" data-item-class="Label Stroke Indexed ColorStrokeBlack" data-item-index="3" data-renderer-id="0" transform="translate(2, 147)"><g id="tx_requires_1lqjg2o9gy1am-fill" stroke="none" fill="#484848"><g><text style="font: 20px Roboto, sans-serif; white-space: pre;" font-weight="20px" font-size="Roboto," font-family="sans-serif"><tspan x="74.35" y="33.5" dominant-baseline="ideographic">Requires </tspan><tspan x="13.56" y="57.5" dominant-baseline="ideographic">repeated config</tspan></text></g></g></g><g id="g-root-1_zqxmhs9gzeoe-fill" data-item-order="1000000000" data-item-id="1_zqxmhs9gzeoe" data-item-class="Icon Stroke Indexed ColorStrokeBlack" data-item-index="3" data-renderer-id="0" transform="translate(158, 147)"></g><g id="g-root-1_zqxmhs9gzeoe-fill" data-item-order="1000000000" data-item-id="1_zqxmhs9gzeoe" data-item-class="Icon Stroke Indexed ColorStrokeBlack" data-item-index="3" data-renderer-id="0" transform="translate(158, 147)"></g><g id="g-root-key_dkgkyo9gzeo6-fill" data-item-order="1000000000" data-item-id="key_dkgkyo9gzeo6" data-item-class="Icon Stroke Indexed ColorStrokeBlack" data-item-index="6" data-renderer-id="0" transform="translate(326, 147)"></g><g id="g-root-key_dkgkyo9gzeo6-fill" data-item-order="1000000000" data-item-id="key_dkgkyo9gzeo6" data-item-class="Icon Stroke Indexed ColorStrokeBlack" data-item-index="6" data-renderer-id="0" transform="translate(326, 147)"></g><g id="g-root-tx_singlese_1cviwww9gxzpd-fill" data-item-order="1000000000" data-item-id="tx_singlese_1cviwww9gxzpd" data-item-class="Label Stroke Indexed ColorStrokeBlack" data-item-index="6" data-renderer-id="0" transform="translate(386, 147)"><g id="tx_singlese_1cviwww9gxzpd-fill" stroke="none" fill="#484848"><g><text style="font: 20px Roboto, sans-serif; white-space: pre;" font-weight="20px" font-size="Roboto," font-family="sans-serif"><tspan x="12" y="33.5" dominant-baseline="ideographic">Single setup </tspan><tspan x="12" y="57.5" dominant-baseline="ideographic">suffices</tspan></text></g></g></g><g id="g-root-tx_singlese_1cviwww9gxzpd-fill" data-item-order="1000000000" data-item-id="tx_singlese_1cviwww9gxzpd" data-item-class="Label Stroke Indexed ColorStrokeBlack" data-item-index="6" data-renderer-id="0" transform="translate(386, 147)"><g id="tx_singlese_1cviwww9gxzpd-fill" stroke="none" fill="#484848"><g><text style="font: 20px Roboto, sans-serif; white-space: pre;" font-weight="20px" font-size="Roboto," font-family="sans-serif"><tspan x="12" y="33.5" dominant-baseline="ideographic">Single setup </tspan><tspan x="12" y="57.5" dominant-baseline="ideographic">suffices</tspan></text></g></g></g><g id="g-root-tx_comparin_zk2ejk9gy1ae-fill" data-item-order="1000000000" data-item-id="tx_comparin_zk2ejk9gy1ae" data-item-class="Label Stroke Title ColorStrokeBlack" data-item-index="none" data-renderer-id="0" transform="translate(8, 375)"><g id="tx_comparin_zk2ejk9gy1ae-fill" stroke="none" fill="#484848"><g><text style="font: 20px Roboto, sans-serif; white-space: pre;" font-weight="20px" font-size="Roboto," font-family="sans-serif"><tspan x="11.97" y="33.5" dominant-baseline="ideographic">Comparing manual setup vs. automated OAuth 2.0 in Dev </tspan><tspan x="230.22" y="57.5" dominant-baseline="ideographic">Spaces.</tspan></text></g></g></g><g id="g-root-tx_lessflex_1hbcf1c9gxyx3-fill" data-item-order="1000000000" data-item-id="tx_lessflex_1hbcf1c9gxyx3" data-item-class="Label Stroke Indexed ColorStrokeBlack" data-item-index="2" data-renderer-id="0" transform="translate(26, 87)"><g id="tx_lessflex_1hbcf1c9gxyx3-fill" stroke="none" fill="#484848"><g><text style="font: 20px Roboto, sans-serif; white-space: pre;" font-weight="20px" font-size="Roboto," font-family="sans-serif"><tspan x="17.67" y="33.5" dominant-baseline="ideographic">Less flexible</tspan></text></g></g></g><g id="g-root-tx_lessflex_1hbcf1c9gxyx3-fill" data-item-order="1000000000" data-item-id="tx_lessflex_1hbcf1c9gxyx3" data-item-class="Label Stroke Indexed ColorStrokeBlack" data-item-index="2" data-renderer-id="0" transform="translate(26, 87)"><g id="tx_lessflex_1hbcf1c9gxyx3-fill" stroke="none" fill="#484848"><g><text style="font: 20px Roboto, sans-serif; white-space: pre;" font-weight="20px" font-size="Roboto," font-family="sans-serif"><tspan x="17.67" y="33.5" dominant-baseline="ideographic">Less flexible</tspan></text></g></g></g><g id="g-root-tx_lessmanu_13zvwo09gy0i3-fill" data-item-order="1000000000" data-item-id="tx_lessmanu_13zvwo09gy0i3" data-item-class="Label Stroke Indexed ColorStrokeBlack" data-item-index="4" data-renderer-id="0" transform="translate(386, 3)"><g id="tx_lessmanu_13zvwo09gy0i3-fill" stroke="none" fill="#484848"><g><text style="font: 20px Roboto, sans-serif; white-space: pre;" font-weight="20px" font-size="Roboto," font-family="sans-serif"><tspan x="12" y="33.5" dominant-baseline="ideographic">Less manual </tspan><tspan x="12" y="57.5" dominant-baseline="ideographic">effort</tspan></text></g></g></g><g id="g-root-tx_lessmanu_13zvwo09gy0i3-fill" data-item-order="1000000000" data-item-id="tx_lessmanu_13zvwo09gy0i3" data-item-class="Label Stroke Indexed ColorStrokeBlack" data-item-index="4" data-renderer-id="0" transform="translate(386, 3)"><g id="tx_lessmanu_13zvwo09gy0i3-fill" stroke="none" fill="#484848"><g><text style="font: 20px Roboto, sans-serif; white-space: pre;" font-weight="20px" font-size="Roboto," font-family="sans-serif"><tspan x="12" y="33.5" dominant-baseline="ideographic">Less manual </tspan><tspan x="12" y="57.5" dominant-baseline="ideographic">effort</tspan></text></g></g></g><g id="g-root-1_8xruw09h0ufj-fill" data-item-order="1000000000" data-item-id="1_8xruw09h0ufj" data-item-class="Icon Stroke Indexed ColorStrokeBlack" data-item-index="4" data-renderer-id="0" transform="translate(326, 3)"></g><g id="g-root-1_8xruw09h0ufj-fill" data-item-order="1000000000" data-item-id="1_8xruw09h0ufj" data-item-class="Icon Stroke Indexed ColorStrokeBlack" data-item-index="4" data-renderer-id="0" transform="translate(326, 3)"></g><g id="g-root-lift_htev4w9h0tmt-fill" data-item-order="1000000000" data-item-id="lift_htev4w9h0tmt" data-item-class="Icon Stroke Indexed Indexed_1 ColorStrokeBlack" data-item-index="1" data-renderer-id="0" transform="translate(158, 3)"></g><g id="g-root-lift_htev4w9h0tmt-fill" data-item-order="1000000000" data-item-id="lift_htev4w9h0tmt" data-item-class="Icon Stroke Indexed Indexed_1 ColorStrokeBlack" data-item-index="1" data-renderer-id="0" transform="translate(158, 3)"></g><g id="g-root-tx_moremanu_1cviwww9gxzpc-fill" data-item-order="1000000000" data-item-id="tx_moremanu_1cviwww9gxzpc" data-item-class="Label Stroke Indexed Indexed_1 ColorStrokeBlack" data-item-index="1" data-renderer-id="0" transform="translate(14, 3)"><g id="tx_moremanu_1cviwww9gxzpc-fill" stroke="none" fill="#484848"><g><text style="font: 20px Roboto, sans-serif; white-space: pre;" font-weight="20px" font-size="Roboto," font-family="sans-serif"><tspan x="22.8" y="33.5" dominant-baseline="ideographic">More manual </tspan><tspan x="90.32" y="57.5" dominant-baseline="ideographic">effort</tspan></text></g></g></g><g id="g-root-tx_manualse_13zvwo09gy0i4-fill" data-item-order="1000000000" data-item-id="tx_manualse_13zvwo09gy0i4" data-item-class="Label Stroke Indexed ColorStrokeBlack" data-item-index="none" data-renderer-id="0" transform="translate(32, 303)"><g id="tx_manualse_13zvwo09gy0i4-fill" stroke="none" fill="#484848"><g><text style="font: 20px Roboto, sans-serif; white-space: pre;" font-weight="20px" font-size="Roboto," font-family="sans-serif"><tspan x="14.84" y="33.5" dominant-baseline="ideographic">Manual Setup</tspan></text></g></g></g><g id="g-root-tx_manualse_13zvwo09gy0i4-fill" data-item-order="1000000000" data-item-id="tx_manualse_13zvwo09gy0i4" data-item-class="Label Stroke Indexed ColorStrokeBlack" data-item-index="none" data-renderer-id="0" transform="translate(32, 303)"><g id="tx_manualse_13zvwo09gy0i4-fill" stroke="none" fill="#484848"><g><text style="font: 20px Roboto, sans-serif; white-space: pre;" font-weight="20px" font-size="Roboto," font-family="sans-serif"><tspan x="14.84" y="33.5" dominant-baseline="ideographic">Manual Setup</tspan></text></g></g></g><g id="g-root-tx_oauth20a_zk2ejk9gy1ad-fill" data-item-order="1000000000" data-item-id="tx_oauth20a_zk2ejk9gy1ad" data-item-class="Label Stroke Indexed ColorStrokeBlack" data-item-index="none" data-renderer-id="0" transform="translate(356, 303)"><g id="tx_oauth20a_zk2ejk9gy1ad-fill" stroke="none" fill="#484848"><g><text style="font: 20px Roboto, sans-serif; white-space: pre;" font-weight="20px" font-size="Roboto," font-family="sans-serif"><tspan x="13.56" y="33.5" dominant-baseline="ideographic">OAuth 2.0 Set up</tspan></text></g></g></g><g id="g-root-tx_oauth20a_zk2ejk9gy1ad-fill" data-item-order="1000000000" data-item-id="tx_oauth20a_zk2ejk9gy1ad" data-item-class="Label Stroke Indexed ColorStrokeBlack" data-item-index="none" data-renderer-id="0" transform="translate(356, 303)"><g id="tx_oauth20a_zk2ejk9gy1ad-fill" stroke="none" fill="#484848"><g><text style="font: 20px Roboto, sans-serif; white-space: pre;" font-weight="20px" font-size="Roboto," font-family="sans-serif"><tspan x="13.56" y="33.5" dominant-baseline="ideographic">OAuth 2.0 Set up</tspan></text></g></g></g><g id="g-root-tx_comparin_zk2ejk9gy1ae-fill" data-item-order="1000000000" data-item-id="tx_comparin_zk2ejk9gy1ae" data-item-class="Label Stroke Title ColorStrokeBlack" data-item-index="none" data-renderer-id="0" transform="translate(8, 375)"><g id="tx_comparin_zk2ejk9gy1ae-fill" stroke="none" fill="#484848"><g><text style="font: 20px Roboto, sans-serif; white-space: pre;" font-weight="20px" font-size="Roboto," font-family="sans-serif"><tspan x="11.97" y="33.5" dominant-baseline="ideographic">Comparing manual setup vs. automated OAuth 2.0 in Dev </tspan><tspan x="230.22" y="57.5" dominant-baseline="ideographic">Spaces.</tspan></text></g></g></g><g id="g-root-tx_moremanu_1cviwww9gxzpc-fill" data-item-order="1000000000" data-item-id="tx_moremanu_1cviwww9gxzpc" data-item-class="Label Stroke Indexed Indexed_1 ColorStrokeBlack" data-item-index="1" data-renderer-id="0" transform="translate(14, 3)"><g id="tx_moremanu_1cviwww9gxzpc-fill" stroke="none" fill="#484848"><g><text style="font: 20px Roboto, sans-serif; white-space: pre;" font-weight="20px" font-size="Roboto," font-family="sans-serif"><tspan x="22.8" y="33.5" dominant-baseline="ideographic">More manual </tspan><tspan x="90.32" y="57.5" dominant-baseline="ideographic">effort</tspan></text></g></g></g><g id="g-root-curv_qvx3c09gzd36-fill" data-item-order="1000000000" data-item-id="curv_qvx3c09gzd36" data-item-class="Icon Stroke Indexed ColorStrokeBlack" data-item-index="2" data-renderer-id="0" transform="translate(158, 75)"></g><g id="g-root-5.cu_sy_m98d9c9gxzpn-stroke" data-item-order="999968324" data-item-id="5.cu_sy_m98d9c9gxzpn" data-item-class="Part Indexed Stroke ColorStrokeGray" data-item-index="5" data-renderer-id="0" transform="translate(182, 226)"><g id="5.cu_sy_m98d9c9gxzpn-stroke" fill="none" stroke-linecap="round" stroke-linejoin="round" stroke-miterlimit="4" stroke="#888888" stroke-width="2"><g><path d="M 178 10L 178 24.978C 178 29.395 174.42 32.976 170.003 32.978L 107 33M 10 10L 10 25.025C 10 29.444 13.582 33.025 18 33.025L 82 33.025"></path></g></g></g><g id="g-root-5.cu_sy_m98d9c9gxzpn-stroke" data-item-order="999968324" data-item-id="5.cu_sy_m98d9c9gxzpn" data-item-class="Part Indexed Stroke ColorStrokeGray" data-item-index="5" data-renderer-id="0" transform="translate(182, 226)"><g id="5.cu_sy_m98d9c9gxzpn-stroke" fill="none" stroke-linecap="round" stroke-linejoin="round" stroke-miterlimit="4" stroke="#888888" stroke-width="2"><g><path d="M 178 10L 178 24.978C 178 29.395 174.42 32.976 170.003 32.978L 107 33M 10 10L 10 25.025C 10 29.444 13.582 33.025 18 33.025L 82 33.025"></path></g></g></g><g id="g-root-4.cu_sy_m98d9c9gxzpm-stroke" data-item-order="999968325" data-item-id="4.cu_sy_m98d9c9gxzpm" data-item-class="Part Indexed Fill Stroke ColorFillGray ColorStrokeGray" data-item-index="4" data-renderer-id="0" transform="translate(254, 237)"><g id="4.cu_sy_m98d9c9gxzpm-stroke" fill="none" stroke-linecap="round" stroke-linejoin="round" stroke-miterlimit="4" stroke="#888888" stroke-width="2"><g><path d="M 34.086 22C 34.086 28.627 28.695 34 22.043 34C 15.392 34 10 28.627 10 22C 10 15.373 15.392 10 22.043 10C 28.695 10 34.086 15.373 34.086 22ZM 28 22C 28 25.314 25.314 28 22 28C 18.686 28 16 25.314 16 22C 16 18.686 18.686 16 22 16C 25.314 16 28 18.686 28 22Z"></path></g></g></g><g id="g-root-4.cu_sy_m98d9c9gxzpm-stroke" data-item-order="999968325" data-item-id="4.cu_sy_m98d9c9gxzpm" data-item-class="Part Indexed Fill Stroke ColorFillGray ColorStrokeGray" data-item-index="4" data-renderer-id="0" transform="translate(254, 237)"><g id="4.cu_sy_m98d9c9gxzpm-stroke" fill="none" stroke-linecap="round" stroke-linejoin="round" stroke-miterlimit="4" stroke="#888888" stroke-width="2"><g><path d="M 34.086 22C 34.086 28.627 28.695 34 22.043 34C 15.392 34 10 28.627 10 22C 10 15.373 15.392 10 22.043 10C 28.695 10 34.086 15.373 34.086 22ZM 28 22C 28 25.314 25.314 28 22 28C 18.686 28 16 25.314 16 22C 16 18.686 18.686 16 22 16C 25.314 16 28 18.686 28 22Z"></path></g></g></g><g id="g-root-3.cu_sy_v4vdi89gxywx-stroke" data-item-order="999968327" data-item-id="3.cu_sy_v4vdi89gxywx" data-item-class="Part Indexed Fill Stroke ColorFillGray ColorStrokeGray" data-item-index="3" data-renderer-id="0" transform="translate(218, 258.325927734375)"><g id="3.cu_sy_v4vdi89gxywx-stroke" fill="none" stroke-linecap="round" stroke-linejoin="round" stroke-miterlimit="4" stroke="#888888" stroke-width="2"><g><path d="M 22 78.674011L 94 78.674011C 94 78.674011 73.992 28.166011 65.959 10.058011C 63.725 11.952011 61.073 12.997011 58.043 12.997011C 54.986 12.997011 52.288 11.933011 50.072 10.000011C 42.047 28.114011 22 78.674011 22 78.674011ZM 18 78.679011C 13.582 78.679011 10 82.260011 10 86.679011L 10 88.679011C 10 89.783011 10.895 90.679011 12 90.679011L 104 90.679011C 105.105 90.679011 106 89.783011 106 88.679011L 106 86.679011C 106 82.260011 102.418 78.679011 98 78.679011L 18 78.679011Z"></path></g></g><g id="3.cu_sy_v4vdi89gxywx-stroke" fill="none" stroke-linecap="round" stroke-linejoin="round" stroke-miterlimit="4" stroke="#888888" stroke-width="2"><g><path d="M 58 58.679011L 54 62.679011L 54 71.749011C 55.177 71.068011 56.543 70.679011 58 70.679011C 59.457 70.679011 60.823 71.068011 62 71.749011L 62 62.679011L 58 58.679011ZM 62 71.749011C 60.823 71.068011 59.457 70.679011 58 70.679011C 56.543 70.679011 55.177 71.068011 54 71.749011C 51.609 73.132011 50 75.718011 50 78.679011L 66 78.679011C 66 75.718011 64.391 73.132011 62 71.749011ZM 58 49.679011L 58 55.479011M 78.503 58.176011L 74.404 62.274011M 37.497 58.176011L 41.596 62.274011M 64.747 53.468011L 64.003 56.262011M 44.94 56.078011L 46.4 58.591011M 71.031 56.068011L 69.59 58.572011M 51.224 53.478011L 51.978 56.271011"></path></g></g></g><g id="g-root-3.cu_sy_v4vdi89gxywx-stroke" data-item-order="999968327" data-item-id="3.cu_sy_v4vdi89gxywx" data-item-class="Part Indexed Fill Stroke ColorFillGray ColorStrokeGray" data-item-index="3" data-renderer-id="0" transform="translate(218, 258.325927734375)"><g id="3.cu_sy_v4vdi89gxywx-stroke" fill="none" stroke-linecap="round" stroke-linejoin="round" stroke-miterlimit="4" stroke="#888888" stroke-width="2"><g><path d="M 22 78.674011L 94 78.674011C 94 78.674011 73.992 28.166011 65.959 10.058011C 63.725 11.952011 61.073 12.997011 58.043 12.997011C 54.986 12.997011 52.288 11.933011 50.072 10.000011C 42.047 28.114011 22 78.674011 22 78.674011ZM 18 78.679011C 13.582 78.679011 10 82.260011 10 86.679011L 10 88.679011C 10 89.783011 10.895 90.679011 12 90.679011L 104 90.679011C 105.105 90.679011 106 89.783011 106 88.679011L 106 86.679011C 106 82.260011 102.418 78.679011 98 78.679011L 18 78.679011Z"></path></g></g><g id="3.cu_sy_v4vdi89gxywx-stroke" fill="none" stroke-linecap="round" stroke-linejoin="round" stroke-miterlimit="4" stroke="#888888" stroke-width="2"><g><path d="M 58 58.679011L 54 62.679011L 54 71.749011C 55.177 71.068011 56.543 70.679011 58 70.679011C 59.457 70.679011 60.823 71.068011 62 71.749011L 62 62.679011L 58 58.679011ZM 62 71.749011C 60.823 71.068011 59.457 70.679011 58 70.679011C 56.543 70.679011 55.177 71.068011 54 71.749011C 51.609 73.132011 50 75.718011 50 78.679011L 66 78.679011C 66 75.718011 64.391 73.132011 62 71.749011ZM 58 49.679011L 58 55.479011M 78.503 58.176011L 74.404 62.274011M 37.497 58.176011L 41.596 62.274011M 64.747 53.468011L 64.003 56.262011M 44.94 56.078011L 46.4 58.591011M 71.031 56.068011L 69.59 58.572011M 51.224 53.478011L 51.978 56.271011"></path></g></g></g><g id="g-root-2.right-bucket_sy_v4vdi89gxyww-stroke" data-item-order="999968329" data-item-id="2.right-bucket_sy_v4vdi89gxyww" data-item-class="Part Indexed Fill Stroke" data-item-index="2" data-renderer-id="0" transform="translate(314, 207)"><g id="2.right-bucket_sy_v4vdi89gxyww-stroke" fill="none" stroke-linecap="round" stroke-linejoin="round" stroke-miterlimit="4" stroke="#3bc482" stroke-width="2"><g><path d="M 10 11.8C 10 10.806 10.806 10 11.8 10L 80.2 10C 81.194 10 82 10.806 82 11.8C 82 20.747 74.747 28 65.8 28L 26.2 28C 17.253 28 10 20.747 10 11.8Z"></path></g></g></g><g id="g-root-2.right-bucket_sy_v4vdi89gxyww-stroke" data-item-order="999968329" data-item-id="2.right-bucket_sy_v4vdi89gxyww" data-item-class="Part Indexed Fill Stroke" data-item-index="2" data-renderer-id="0" transform="translate(314, 207)"><g id="2.right-bucket_sy_v4vdi89gxyww-stroke" fill="none" stroke-linecap="round" stroke-linejoin="round" stroke-miterlimit="4" stroke="#3bc482" stroke-width="2"><g><path d="M 10 11.8C 10 10.806 10.806 10 11.8 10L 80.2 10C 81.194 10 82 10.806 82 11.8C 82 20.747 74.747 28 65.8 28L 26.2 28C 17.253 28 10 20.747 10 11.8Z"></path></g></g></g><g id="g-root-1.left-bucket_sy_qp1vds9gxyxb-stroke" data-item-order="999968331" data-item-id="1.left-bucket_sy_qp1vds9gxyxb" data-item-class="Part Indexed Indexed_1 Fill Stroke" data-item-index="1" data-renderer-id="0" transform="translate(146, 207)"><g id="1.left-bucket_sy_qp1vds9gxyxb-stroke" fill="none" stroke-linecap="round" stroke-linejoin="round" stroke-miterlimit="4" stroke="#e15e5a" stroke-width="2"><g><path d="M 10 11.8C 10 10.806 10.806 10 11.8 10L 80.2 10C 81.194 10 82 10.806 82 11.8C 82 20.747 74.747 28 65.8 28L 26.2 28C 17.253 28 10 20.747 10 11.8Z"></path></g></g></g><g id="g-root-1.left-bucket_sy_qp1vds9gxyxb-stroke" data-item-order="999968331" data-item-id="1.left-bucket_sy_qp1vds9gxyxb" data-item-class="Part Indexed Indexed_1 Fill Stroke" data-item-index="1" data-renderer-id="0" transform="translate(146, 207)"><g id="1.left-bucket_sy_qp1vds9gxyxb-stroke" fill="none" stroke-linecap="round" stroke-linejoin="round" stroke-miterlimit="4" stroke="#e15e5a" stroke-width="2"><g><path d="M 10 11.8C 10 10.806 10.806 10 11.8 10L 80.2 10C 81.194 10 82 10.806 82 11.8C 82 20.747 74.747 28 65.8 28L 26.2 28C 17.253 28 10 20.747 10 11.8Z"></path></g></g></g><g id="g-root-curv_qvx3c09gzd36-stroke" data-item-order="1000000000" data-item-id="curv_qvx3c09gzd36" data-item-class="Icon Stroke Indexed ColorStrokeBlack" data-item-index="2" data-renderer-id="0" transform="translate(158, 75)"><g id="curv_qvx3c09gzd36-stroke" fill="none" stroke-linecap="round" stroke-linejoin="round" stroke-miterlimit="4" stroke="#484848" stroke-width="2"><g><path d="M 43 56L 43 28C 43 19.163445 35.836555 12 27 12C 18.163445 12 11 19.163445 11 28C 11 36.836555 18.163445 44 27 44L 31 44M 43 32L 57 32M 43 44L 57 44M 31 32L 27 32C 24.790861 32 23 30.209139 23 28C 23 25.790861 24.790861 24 27 24C 29.209139 24 31 25.790861 31 28L 31 56M 37 54L 37 44M 37 36.059998L 37 26.059999M 18 32.379997C 17.338768 31.014746 16.996807 29.516951 17 28C 16.99839 26.508856 17.340586 25.037416 18 23.700001M 24 37.559998C 24.974449 37.846489 25.984325 37.994606 27 38L 31 38M 22.58 19.02C 23.958551 18.35384 25.468939 18.005287 27 18C 28.495155 17.999605 29.971371 18.334488 31.32 18.98M 47 38L 55 38"></path></g></g></g><g id="g-root-bus_htev4w9h0tmu-stroke" data-item-order="1000000000" data-item-id="bus_htev4w9h0tmu" data-item-class="Icon Stroke Indexed ColorStrokeBlack" data-item-index="5" data-renderer-id="0" transform="translate(326, 75)"><g id="bus_htev4w9h0tmu-stroke" fill="none" stroke-linecap="round" stroke-linejoin="round" stroke-miterlimit="4" stroke="#484848" stroke-width="2"><g><path d="M 56.5 18L 47.5 18C 46.395432 18 45.5 18.895432 45.5 20L 45.5 47L 50.5 47M 21.5 47L 29.5 47M 35.5 47L 38.5 47L 38.5 20C 38.5 18.895432 37.604568 18 36.5 18L 13.5 18C 12.395431 18 11.5 18.895432 11.5 20L 11.5 45C 11.5 46.104568 12.395431 47 13.5 47L 15.5 47M 50.5 47C 50.5 48.656857 51.843147 50 53.5 50C 55.156857 50 56.5 48.656857 56.5 47C 56.5 45.343147 55.156857 44 53.5 44C 51.843147 44 50.5 45.343147 50.5 47M 29.5 47C 29.5 48.656857 30.843147 50 32.5 50C 34.156853 50 35.5 48.656857 35.5 47C 35.5 45.343147 34.156853 44 32.5 44C 30.843147 44 29.5 45.343147 29.5 47M 15.5 47C 15.5 48.656857 16.843145 50 18.5 50C 20.156855 50 21.5 48.656857 21.5 47C 21.5 45.343147 20.156855 44 18.5 44C 16.843145 44 15.5 45.343147 15.5 47M 38.5 20L 45.5 20L 45.5 47L 38.5 47ZM 11.5 39L 17.1 39C 18.204571 39 19.1 38.104568 19.1 37L 19.1 24L 11.5 24M 19.094 37L 28 35L 38.5 35L 38.5 24L 19.094 24L 19.094 37ZM 56.5 24L 45.5 24L 45.5 35L 56.5 35M 28 24L 28 35M 52.5 24L 52.5 35"></path></g></g></g><g id="g-root-bus_htev4w9h0tmu-stroke" data-item-order="1000000000" data-item-id="bus_htev4w9h0tmu" data-item-class="Icon Stroke Indexed ColorStrokeBlack" data-item-index="5" data-renderer-id="0" transform="translate(326, 75)"><g id="bus_htev4w9h0tmu-stroke" fill="none" stroke-linecap="round" stroke-linejoin="round" stroke-miterlimit="4" stroke="#484848" stroke-width="2"><g><path d="M 56.5 18L 47.5 18C 46.395432 18 45.5 18.895432 45.5 20L 45.5 47L 50.5 47M 21.5 47L 29.5 47M 35.5 47L 38.5 47L 38.5 20C 38.5 18.895432 37.604568 18 36.5 18L 13.5 18C 12.395431 18 11.5 18.895432 11.5 20L 11.5 45C 11.5 46.104568 12.395431 47 13.5 47L 15.5 47M 50.5 47C 50.5 48.656857 51.843147 50 53.5 50C 55.156857 50 56.5 48.656857 56.5 47C 56.5 45.343147 55.156857 44 53.5 44C 51.843147 44 50.5 45.343147 50.5 47M 29.5 47C 29.5 48.656857 30.843147 50 32.5 50C 34.156853 50 35.5 48.656857 35.5 47C 35.5 45.343147 34.156853 44 32.5 44C 30.843147 44 29.5 45.343147 29.5 47M 15.5 47C 15.5 48.656857 16.843145 50 18.5 50C 20.156855 50 21.5 48.656857 21.5 47C 21.5 45.343147 20.156855 44 18.5 44C 16.843145 44 15.5 45.343147 15.5 47M 38.5 20L 45.5 20L 45.5 47L 38.5 47ZM 11.5 39L 17.1 39C 18.204571 39 19.1 38.104568 19.1 37L 19.1 24L 11.5 24M 19.094 37L 28 35L 38.5 35L 38.5 24L 19.094 24L 19.094 37ZM 56.5 24L 45.5 24L 45.5 35L 56.5 35M 28 24L 28 35M 52.5 24L 52.5 35"></path></g></g></g><g id="g-root-tx_moreflex_13zvwo09gy0i2-stroke" data-item-order="1000000000" data-item-id="tx_moreflex_13zvwo09gy0i2" data-item-class="Label Stroke Indexed ColorStrokeBlack" data-item-index="5" data-renderer-id="0" transform="translate(386, 87)"></g><g id="g-root-tx_moreflex_13zvwo09gy0i2-stroke" data-item-order="1000000000" data-item-id="tx_moreflex_13zvwo09gy0i2" data-item-class="Label Stroke Indexed ColorStrokeBlack" data-item-index="5" data-renderer-id="0" transform="translate(386, 87)"></g><g id="g-root-tx_requires_1lqjg2o9gy1am-stroke" data-item-order="1000000000" data-item-id="tx_requires_1lqjg2o9gy1am" data-item-class="Label Stroke Indexed ColorStrokeBlack" data-item-index="3" data-renderer-id="0" transform="translate(2, 147)"></g><g id="g-root-tx_requires_1lqjg2o9gy1am-stroke" data-item-order="1000000000" data-item-id="tx_requires_1lqjg2o9gy1am" data-item-class="Label Stroke Indexed ColorStrokeBlack" data-item-index="3" data-renderer-id="0" transform="translate(2, 147)"></g><g id="g-root-1_zqxmhs9gzeoe-stroke" data-item-order="1000000000" data-item-id="1_zqxmhs9gzeoe" data-item-class="Icon Stroke Indexed ColorStrokeBlack" data-item-index="3" data-renderer-id="0" transform="translate(158, 147)"><g id="1_zqxmhs9gzeoe-stroke" fill="none" stroke-linecap="round" stroke-linejoin="round" stroke-miterlimit="4" stroke="#484848" stroke-width="2"><g><path d="M 19.25 24C 19.25 24.414215 19.585787 24.75 20 24.75C 20.414215 24.75 20.75 24.414215 20.75 24C 20.75 23.585787 20.414215 23.25 20 23.25C 19.585787 23.25 19.25 23.585787 19.25 24M 27.25 24C 27.25 24.414215 27.585787 24.75 28 24.75C 28.414213 24.75 28.75 24.414215 28.75 24C 28.75 23.585787 28.414213 23.25 28 23.25C 27.585787 23.25 27.25 23.585787 27.25 24M 19.25 31C 19.25 31.414215 19.585787 31.75 20 31.75C 20.414215 31.75 20.75 31.414215 20.75 31C 20.75 30.585787 20.414215 30.25 20 30.25C 19.585787 30.25 19.25 30.585787 19.25 31M 19.25 38C 19.25 38.414215 19.585787 38.75 20 38.75C 20.414215 38.75 20.75 38.414215 20.75 38C 20.75 37.585785 20.414215 37.25 20 37.25C 19.585787 37.25 19.25 37.585785 19.25 38M 27.25 31C 27.25 31.414215 27.585787 31.75 28 31.75C 28.414213 31.75 28.75 31.414215 28.75 31C 28.75 30.585787 28.414213 30.25 28 30.25C 27.585787 30.25 27.25 30.585787 27.25 31M 35.25 24C 35.25 24.414215 35.585785 24.75 36 24.75C 36.414215 24.75 36.75 24.414215 36.75 24C 36.75 23.585787 36.414215 23.25 36 23.25C 35.585785 23.25 35.25 23.585787 35.25 24M 26.5 44.5L 14.5 44.5C 12.843145 44.5 11.5 43.156857 11.5 41.5L 11.5 41.5L 11.5 17.5C 11.5 15.843145 12.843145 14.5 14.5 14.5L 41.5 14.5C 43.156857 14.5 44.5 15.843145 44.5 17.5L 44.5 26.5M 20.5 17.5L 20.5 11.5M 35.5 17.5L 35.5 11.5M 32.5 44.5C 32.5 51.127419 37.872581 56.5 44.5 56.5C 51.127419 56.5 56.5 51.127419 56.5 44.5C 56.5 37.872581 51.127419 32.5 44.5 32.5C 37.872581 32.5 32.5 37.872581 32.5 44.5M 49.804001 44.5L 44.5 44.5L 44.5 39.197998"></path></g></g></g><g id="g-root-1_zqxmhs9gzeoe-stroke" data-item-order="1000000000" data-item-id="1_zqxmhs9gzeoe" data-item-class="Icon Stroke Indexed ColorStrokeBlack" data-item-index="3" data-renderer-id="0" transform="translate(158, 147)"><g id="1_zqxmhs9gzeoe-stroke" fill="none" stroke-linecap="round" stroke-linejoin="round" stroke-miterlimit="4" stroke="#484848" stroke-width="2"><g><path d="M 19.25 24C 19.25 24.414215 19.585787 24.75 20 24.75C 20.414215 24.75 20.75 24.414215 20.75 24C 20.75 23.585787 20.414215 23.25 20 23.25C 19.585787 23.25 19.25 23.585787 19.25 24M 27.25 24C 27.25 24.414215 27.585787 24.75 28 24.75C 28.414213 24.75 28.75 24.414215 28.75 24C 28.75 23.585787 28.414213 23.25 28 23.25C 27.585787 23.25 27.25 23.585787 27.25 24M 19.25 31C 19.25 31.414215 19.585787 31.75 20 31.75C 20.414215 31.75 20.75 31.414215 20.75 31C 20.75 30.585787 20.414215 30.25 20 30.25C 19.585787 30.25 19.25 30.585787 19.25 31M 19.25 38C 19.25 38.414215 19.585787 38.75 20 38.75C 20.414215 38.75 20.75 38.414215 20.75 38C 20.75 37.585785 20.414215 37.25 20 37.25C 19.585787 37.25 19.25 37.585785 19.25 38M 27.25 31C 27.25 31.414215 27.585787 31.75 28 31.75C 28.414213 31.75 28.75 31.414215 28.75 31C 28.75 30.585787 28.414213 30.25 28 30.25C 27.585787 30.25 27.25 30.585787 27.25 31M 35.25 24C 35.25 24.414215 35.585785 24.75 36 24.75C 36.414215 24.75 36.75 24.414215 36.75 24C 36.75 23.585787 36.414215 23.25 36 23.25C 35.585785 23.25 35.25 23.585787 35.25 24M 26.5 44.5L 14.5 44.5C 12.843145 44.5 11.5 43.156857 11.5 41.5L 11.5 41.5L 11.5 17.5C 11.5 15.843145 12.843145 14.5 14.5 14.5L 41.5 14.5C 43.156857 14.5 44.5 15.843145 44.5 17.5L 44.5 26.5M 20.5 17.5L 20.5 11.5M 35.5 17.5L 35.5 11.5M 32.5 44.5C 32.5 51.127419 37.872581 56.5 44.5 56.5C 51.127419 56.5 56.5 51.127419 56.5 44.5C 56.5 37.872581 51.127419 32.5 44.5 32.5C 37.872581 32.5 32.5 37.872581 32.5 44.5M 49.804001 44.5L 44.5 44.5L 44.5 39.197998"></path></g></g></g><g id="g-root-key_dkgkyo9gzeo6-stroke" data-item-order="1000000000" data-item-id="key_dkgkyo9gzeo6" data-item-class="Icon Stroke Indexed ColorStrokeBlack" data-item-index="6" data-renderer-id="0" transform="translate(326, 147)"><g id="key_dkgkyo9gzeo6-stroke" fill="none" stroke-linecap="round" stroke-linejoin="round" stroke-miterlimit="4" stroke="#484848" stroke-width="2"><g><path d="M 25.428572 35.714287C 25.428572 33.82074 26.963596 32.285713 28.857143 32.285713L 52.857143 32.285713C 54.750694 32.285713 56.285713 33.82074 56.285713 35.714287L 56.285713 52.857143C 56.285713 54.750694 54.750694 56.285713 52.857143 56.285713M 28.857143 32.285713L 28.857143 23.714287C 28.857145 17.086868 34.229729 11.714287 40.857143 11.714287C 47.484562 11.714287 52.857143 17.086868 52.857143 23.714287L 52.857143 32.285713M 11.714286 49.428574C 11.714286 53.215668 14.784333 56.285713 18.571428 56.285713C 22.358524 56.285713 25.428572 53.215668 25.428572 49.428574C 25.428572 45.641476 22.358524 42.57143 18.571428 42.57143C 14.784333 42.57143 11.714286 45.641476 11.714286 49.428574M 25.428572 49.428574L 42.57143 49.428574L 42.57143 56.285713M 34 49.428574L 34 56.285713"></path></g></g></g><g id="g-root-key_dkgkyo9gzeo6-stroke" data-item-order="1000000000" data-item-id="key_dkgkyo9gzeo6" data-item-class="Icon Stroke Indexed ColorStrokeBlack" data-item-index="6" data-renderer-id="0" transform="translate(326, 147)"><g id="key_dkgkyo9gzeo6-stroke" fill="none" stroke-linecap="round" stroke-linejoin="round" stroke-miterlimit="4" stroke="#484848" stroke-width="2"><g><path d="M 25.428572 35.714287C 25.428572 33.82074 26.963596 32.285713 28.857143 32.285713L 52.857143 32.285713C 54.750694 32.285713 56.285713 33.82074 56.285713 35.714287L 56.285713 52.857143C 56.285713 54.750694 54.750694 56.285713 52.857143 56.285713M 28.857143 32.285713L 28.857143 23.714287C 28.857145 17.086868 34.229729 11.714287 40.857143 11.714287C 47.484562 11.714287 52.857143 17.086868 52.857143 23.714287L 52.857143 32.285713M 11.714286 49.428574C 11.714286 53.215668 14.784333 56.285713 18.571428 56.285713C 22.358524 56.285713 25.428572 53.215668 25.428572 49.428574C 25.428572 45.641476 22.358524 42.57143 18.571428 42.57143C 14.784333 42.57143 11.714286 45.641476 11.714286 49.428574M 25.428572 49.428574L 42.57143 49.428574L 42.57143 56.285713M 34 49.428574L 34 56.285713"></path></g></g></g><g id="g-root-tx_singlese_1cviwww9gxzpd-stroke" data-item-order="1000000000" data-item-id="tx_singlese_1cviwww9gxzpd" data-item-class="Label Stroke Indexed ColorStrokeBlack" data-item-index="6" data-renderer-id="0" transform="translate(386, 147)"></g><g id="g-root-tx_singlese_1cviwww9gxzpd-stroke" data-item-order="1000000000" data-item-id="tx_singlese_1cviwww9gxzpd" data-item-class="Label Stroke Indexed ColorStrokeBlack" data-item-index="6" data-renderer-id="0" transform="translate(386, 147)"></g><g id="g-root-tx_comparin_zk2ejk9gy1ae-stroke" data-item-order="1000000000" data-item-id="tx_comparin_zk2ejk9gy1ae" data-item-class="Label Stroke Title ColorStrokeBlack" data-item-index="none" data-renderer-id="0" transform="translate(8, 375)"></g><g id="g-root-tx_lessflex_1hbcf1c9gxyx3-stroke" data-item-order="1000000000" data-item-id="tx_lessflex_1hbcf1c9gxyx3" data-item-class="Label Stroke Indexed ColorStrokeBlack" data-item-index="2" data-renderer-id="0" transform="translate(26, 87)"></g><g id="g-root-tx_lessflex_1hbcf1c9gxyx3-stroke" data-item-order="1000000000" data-item-id="tx_lessflex_1hbcf1c9gxyx3" data-item-class="Label Stroke Indexed ColorStrokeBlack" data-item-index="2" data-renderer-id="0" transform="translate(26, 87)"></g><g id="g-root-tx_lessmanu_13zvwo09gy0i3-stroke" data-item-order="1000000000" data-item-id="tx_lessmanu_13zvwo09gy0i3" data-item-class="Label Stroke Indexed ColorStrokeBlack" data-item-index="4" data-renderer-id="0" transform="translate(386, 3)"></g><g id="g-root-tx_lessmanu_13zvwo09gy0i3-stroke" data-item-order="1000000000" data-item-id="tx_lessmanu_13zvwo09gy0i3" data-item-class="Label Stroke Indexed ColorStrokeBlack" data-item-index="4" data-renderer-id="0" transform="translate(386, 3)"></g><g id="g-root-1_8xruw09h0ufj-stroke" data-item-order="1000000000" data-item-id="1_8xruw09h0ufj" data-item-class="Icon Stroke Indexed ColorStrokeBlack" data-item-index="4" data-renderer-id="0" transform="translate(326, 3)"><g id="1_8xruw09h0ufj-stroke" fill="none" stroke-linecap="round" stroke-linejoin="round" stroke-miterlimit="4" stroke="#484848" stroke-width="2"><g><path d="M 51 57L 52 45L 57 45L 57 38C 57 32.477154 52.522846 28 47 28C 41.477154 28 37 32.477154 37 38L 37 45L 42 45L 43 57ZM 40.959999 14.440001C 43.150082 16.721088 46.177757 18.007309 49.34 18C 50.940964 18.005489 52.526356 17.68569 54 17.059999M 40 18C 40 21.865993 43.134007 25 47 25C 50.865993 25 54 21.865993 54 18C 54 14.134007 50.865993 11 47 11C 43.134007 11 40 14.134007 40 18M 30.200001 35L 12.74 35C 12.191138 35.002083 11.675435 35.263016 11.348641 35.703995C 11.021847 36.144966 10.922276 36.714287 11.08 37.239998L 13.72 46C 13.875895 46.57576 14.403618 46.971554 15 46.959999L 27.799999 46.959999M 15 51L 25 51C 26.17498 50.992062 27.180311 50.154285 27.4 49L 30.6 33C 30.819691 31.845715 31.82502 31.007938 33 31L 35 31M 15.5 56C 15.776142 56 16 56.223858 16 56.5C 16 56.776142 15.776142 57 15.5 57C 15.223858 57 15 56.776142 15 56.5C 15 56.223858 15.223858 56 15.5 56M 25.5 56C 25.776142 56 26 56.223858 26 56.5C 26 56.776142 25.776142 57 25.5 57C 25.223858 57 25 56.776142 25 56.5C 25 56.223858 25.223858 56 25.5 56"></path></g></g></g><g id="g-root-1_8xruw09h0ufj-stroke" data-item-order="1000000000" data-item-id="1_8xruw09h0ufj" data-item-class="Icon Stroke Indexed ColorStrokeBlack" data-item-index="4" data-renderer-id="0" transform="translate(326, 3)"><g id="1_8xruw09h0ufj-stroke" fill="none" stroke-linecap="round" stroke-linejoin="round" stroke-miterlimit="4" stroke="#484848" stroke-width="2"><g><path d="M 51 57L 52 45L 57 45L 57 38C 57 32.477154 52.522846 28 47 28C 41.477154 28 37 32.477154 37 38L 37 45L 42 45L 43 57ZM 40.959999 14.440001C 43.150082 16.721088 46.177757 18.007309 49.34 18C 50.940964 18.005489 52.526356 17.68569 54 17.059999M 40 18C 40 21.865993 43.134007 25 47 25C 50.865993 25 54 21.865993 54 18C 54 14.134007 50.865993 11 47 11C 43.134007 11 40 14.134007 40 18M 30.200001 35L 12.74 35C 12.191138 35.002083 11.675435 35.263016 11.348641 35.703995C 11.021847 36.144966 10.922276 36.714287 11.08 37.239998L 13.72 46C 13.875895 46.57576 14.403618 46.971554 15 46.959999L 27.799999 46.959999M 15 51L 25 51C 26.17498 50.992062 27.180311 50.154285 27.4 49L 30.6 33C 30.819691 31.845715 31.82502 31.007938 33 31L 35 31M 15.5 56C 15.776142 56 16 56.223858 16 56.5C 16 56.776142 15.776142 57 15.5 57C 15.223858 57 15 56.776142 15 56.5C 15 56.223858 15.223858 56 15.5 56M 25.5 56C 25.776142 56 26 56.223858 26 56.5C 26 56.776142 25.776142 57 25.5 57C 25.223858 57 25 56.776142 25 56.5C 25 56.223858 25.223858 56 25.5 56"></path></g></g></g><g id="g-root-lift_htev4w9h0tmt-stroke" data-item-order="1000000000" data-item-id="lift_htev4w9h0tmt" data-item-class="Icon Stroke Indexed Indexed_1 ColorStrokeBlack" data-item-index="1" data-renderer-id="0" transform="translate(158, 3)"><g id="lift_htev4w9h0tmt-stroke" fill="none" stroke-linecap="round" stroke-linejoin="round" stroke-miterlimit="4" stroke="#484848" stroke-width="2"><g><path d="M 13 11L 17 11C 17 11 19 11 19 13L 19 35C 19 35 19 37 17 37L 13 37C 13 37 11 37 11 35L 11 13C 11 13 11 11 13 11M 51 11L 55 11C 55 11 57 11 57 13L 57 35C 57 35 57 37 55 37L 51 37C 51 37 49 37 49 35L 49 13C 49 13 49 11 51 11M 23 32L 23 33C 22.998497 34.129501 23.476025 35.206657 24.313999 35.964001C 25.849806 37.357769 26.556925 39.44585 26.184 41.486L 23 57M 19 27L 25 27C 26.10457 27 27 26.10457 27 25L 27 19C 27 17.895432 27.89543 17 29 17L 41 17C 42.104568 17 43 17.895432 43 19L 43 30.497999C 42.999638 32.097198 42.364452 33.630844 41.234001 34.762001C 39.833965 36.16127 39.209816 38.158539 39.564003 40.106003L 43 57M 19 21L 27.004 21M 43.004002 21L 49 21M 43 27L 49 27M 31 17.004L 31 24.004M 35 17.004L 35 24.004M 39 17.004L 39 24.004"></path></g></g></g><g id="g-root-lift_htev4w9h0tmt-stroke" data-item-order="1000000000" data-item-id="lift_htev4w9h0tmt" data-item-class="Icon Stroke Indexed Indexed_1 ColorStrokeBlack" data-item-index="1" data-renderer-id="0" transform="translate(158, 3)"><g id="lift_htev4w9h0tmt-stroke" fill="none" stroke-linecap="round" stroke-linejoin="round" stroke-miterlimit="4" stroke="#484848" stroke-width="2"><g><path d="M 13 11L 17 11C 17 11 19 11 19 13L 19 35C 19 35 19 37 17 37L 13 37C 13 37 11 37 11 35L 11 13C 11 13 11 11 13 11M 51 11L 55 11C 55 11 57 11 57 13L 57 35C 57 35 57 37 55 37L 51 37C 51 37 49 37 49 35L 49 13C 49 13 49 11 51 11M 23 32L 23 33C 22.998497 34.129501 23.476025 35.206657 24.313999 35.964001C 25.849806 37.357769 26.556925 39.44585 26.184 41.486L 23 57M 19 27L 25 27C 26.10457 27 27 26.10457 27 25L 27 19C 27 17.895432 27.89543 17 29 17L 41 17C 42.104568 17 43 17.895432 43 19L 43 30.497999C 42.999638 32.097198 42.364452 33.630844 41.234001 34.762001C 39.833965 36.16127 39.209816 38.158539 39.564003 40.106003L 43 57M 19 21L 27.004 21M 43.004002 21L 49 21M 43 27L 49 27M 31 17.004L 31 24.004M 35 17.004L 35 24.004M 39 17.004L 39 24.004"></path></g></g></g><g id="g-root-tx_moremanu_1cviwww9gxzpc-stroke" data-item-order="1000000000" data-item-id="tx_moremanu_1cviwww9gxzpc" data-item-class="Label Stroke Indexed Indexed_1 ColorStrokeBlack" data-item-index="1" data-renderer-id="0" transform="translate(14, 3)"></g><g id="g-root-tx_manualse_13zvwo09gy0i4-stroke" data-item-order="1000000000" data-item-id="tx_manualse_13zvwo09gy0i4" data-item-class="Label Stroke Indexed ColorStrokeBlack" data-item-index="none" data-renderer-id="0" transform="translate(32, 303)"></g><g id="g-root-tx_manualse_13zvwo09gy0i4-stroke" data-item-order="1000000000" data-item-id="tx_manualse_13zvwo09gy0i4" data-item-class="Label Stroke Indexed ColorStrokeBlack" data-item-index="none" data-renderer-id="0" transform="translate(32, 303)"></g><g id="g-root-tx_oauth20a_zk2ejk9gy1ad-stroke" data-item-order="1000000000" data-item-id="tx_oauth20a_zk2ejk9gy1ad" data-item-class="Label Stroke Indexed ColorStrokeBlack" data-item-index="none" data-renderer-id="0" transform="translate(356, 303)"></g><g id="g-root-tx_oauth20a_zk2ejk9gy1ad-stroke" data-item-order="1000000000" data-item-id="tx_oauth20a_zk2ejk9gy1ad" data-item-class="Label Stroke Indexed ColorStrokeBlack" data-item-index="none" data-renderer-id="0" transform="translate(356, 303)"></g><g id="g-root-tx_comparin_zk2ejk9gy1ae-stroke" data-item-order="1000000000" data-item-id="tx_comparin_zk2ejk9gy1ae" data-item-class="Label Stroke Title ColorStrokeBlack" data-item-index="none" data-renderer-id="0" transform="translate(8, 375)"></g><g id="g-root-tx_moremanu_1cviwww9gxzpc-stroke" data-item-order="1000000000" data-item-id="tx_moremanu_1cviwww9gxzpc" data-item-class="Label Stroke Indexed Indexed_1 ColorStrokeBlack" data-item-index="1" data-renderer-id="0" transform="translate(14, 3)"></g><g id="g-root-curv_qvx3c09gzd36-stroke" data-item-order="1000000000" data-item-id="curv_qvx3c09gzd36" data-item-class="Icon Stroke Indexed ColorStrokeBlack" data-item-index="2" data-renderer-id="0" transform="translate(158, 75)"><g id="curv_qvx3c09gzd36-stroke" fill="none" stroke-linecap="round" stroke-linejoin="round" stroke-miterlimit="4" stroke="#484848" stroke-width="2"><g><path d="M 43 56L 43 28C 43 19.163445 35.836555 12 27 12C 18.163445 12 11 19.163445 11 28C 11 36.836555 18.163445 44 27 44L 31 44M 43 32L 57 32M 43 44L 57 44M 31 32L 27 32C 24.790861 32 23 30.209139 23 28C 23 25.790861 24.790861 24 27 24C 29.209139 24 31 25.790861 31 28L 31 56M 37 54L 37 44M 37 36.059998L 37 26.059999M 18 32.379997C 17.338768 31.014746 16.996807 29.516951 17 28C 16.99839 26.508856 17.340586 25.037416 18 23.700001M 24 37.559998C 24.974449 37.846489 25.984325 37.994606 27 38L 31 38M 22.58 19.02C 23.958551 18.35384 25.468939 18.005287 27 18C 28.495155 17.999605 29.971371 18.334488 31.32 18.98M 47 38L 55 38"></path></g></g></g></g></g></svg>